<svg width="1440" height="768" viewBox="0 0 1440 768" fill="none" xmlns="http://www.w3.org/2000/svg">
<g clip-path="url(#clip0_10094_191286)">
<path d="M1440 0.259766H0V768H1440V0.259766Z" fill="url(#paint0_linear_10094_191286)"/>
<path d="M1521.67 478.13C1521.67 478.13 1469.94 443.11 1350.48 449C1167.85 458 1132.22 578.68 1065.6 631.54C963.74 712.36 676.68 587 571.57 590.14C435.55 594.2 394.31 789.51 -81.6797 649.26" stroke="#FF411C" stroke-width="1.42" stroke-miterlimit="10"/>
<path d="M1516.28 495.19C1516.28 495.19 1463.9 452.62 1339.41 456.97C1155.39 464.09 1105.77 584.44 1036.25 634.63C933.101 709.11 672.091 588.36 564.831 590.47C433.561 593.04 367.171 771.09 -75.2188 631.72" stroke="#FF411C" stroke-width="1.37" stroke-miterlimit="10"/>
<path d="M1510.89 512.25C1510.89 512.25 1457.84 461.71 1328.35 464.93C1142.91 469.55 1079.44 590.22 1006.91 637.71C902.67 705.97 667.521 589.76 558.091 590.78C431.571 591.97 340.03 752.65 -68.7695 614.16" stroke="#FF411C" stroke-width="1.32" stroke-miterlimit="10"/>
<path d="M1505.5 529.3C1505.5 529.3 1451.8 471.06 1317.28 472.89C1130.45 475.44 1053.21 596.07 977.571 640.79C872.411 702.97 662.961 591.19 551.361 591.1C429.611 591 312.901 734.22 -62.2988 596.6" stroke="#FF411C" stroke-width="1.26" stroke-miterlimit="10"/>
<path d="M1500.1 546.36C1500.1 546.36 1445.76 480.46 1306.21 480.86C1117.99 481.41 1027.09 602 948.22 643.88C842.3 700.13 658.4 592.69 544.61 591.43C427.62 590.14 285.74 715.8 -55.8496 579.06" stroke="#FF411C" stroke-width="1.21" stroke-miterlimit="10"/>
<path d="M1494.71 563.419C1494.71 563.419 1439.72 489.899 1295.15 488.829C1105.55 487.429 1001.06 608.039 918.879 646.969C812.329 697.459 653.849 594.239 537.879 591.759C425.669 589.359 258.609 697.38 -49.3906 561.52" stroke="#FF411C" stroke-width="1.16" stroke-miterlimit="10"/>
<path d="M1489.32 580.48C1489.32 580.48 1433.68 499.38 1284.08 496.8C1093.09 493.51 975.09 614.19 889.53 650.06C782.45 694.95 649.29 595.86 531.14 592.08C423.7 588.65 231.47 678.95 -42.9297 543.97" stroke="#FF411C" stroke-width="1.1" stroke-miterlimit="10"/>
<path d="M1483.92 597.53C1483.92 597.53 1427.64 508.88 1273.01 504.76C1080.63 499.62 949.19 620.47 860.18 653.14C752.66 692.61 644.74 597.54 524.39 592.4C421.72 588.01 204.32 660.53 -36.4805 526.41" stroke="#FF411C" stroke-width="1.05" stroke-miterlimit="10"/>
<path d="M1478.53 614.589C1478.53 614.589 1421.6 518.439 1261.94 512.719C1068.17 505.779 923.331 626.889 830.831 656.219C722.911 690.439 640.181 599.309 517.651 592.719C419.751 587.449 177.171 642.099 -30.0293 508.859" stroke="#FF411C" stroke-width="0.99" stroke-miterlimit="10"/>
<path d="M1473.14 631.65C1473.14 631.65 1415.56 528.03 1250.88 520.69C1055.72 511.99 897.509 633.49 801.489 659.32C693.199 688.45 635.619 601.19 510.919 593.06C417.789 586.98 150.039 623.69 -23.5605 491.33" stroke="#FF411C" stroke-width="0.94" stroke-miterlimit="10"/>
<path d="M1467.74 648.7C1467.74 648.7 1409.5 537.65 1239.8 528.65C1043.24 518.22 871.681 640.23 772.141 662.4C663.481 686.6 631.041 603.17 504.171 593.37C415.791 586.55 122.891 605.25 -17.1094 473.77" stroke="#FF411C" stroke-width="0.89" stroke-miterlimit="10"/>
<path d="M1462.35 665.759C1462.35 665.759 1403.45 547.309 1228.74 536.619C1030.78 524.499 845.86 647.149 742.8 665.489C633.74 684.899 626.45 605.289 497.44 593.699C413.81 586.189 95.7596 586.829 -10.6504 456.229" stroke="#FF411C" stroke-width="0.83" stroke-miterlimit="10"/>
<path d="M1456.96 682.82C1456.96 682.82 1397.39 557.23 1217.67 544.59C1018.29 531.05 820.001 654.23 713.451 668.58C603.951 683.33 621.831 607.56 490.691 594.03C411.791 585.89 68.6008 568.41 -4.19922 438.68" stroke="#FF411C" stroke-width="0.78" stroke-miterlimit="10"/>
<path d="M1451.56 699.88C1451.56 699.88 1391.33 566.74 1206.6 552.55C1005.82 537.13 794.1 661.45 684.1 671.66C574.09 681.86 617.18 609.99 483.95 594.35C409.77 585.64 41.4598 549.98 2.25977 421.13" stroke="#FF411C" stroke-width="0.72" stroke-miterlimit="10"/>
<path d="M800.497 705.867V712.059H797.242V700.941H800.425V703.92H800.665C801.311 701.762 802.675 700.636 804.47 700.636C806.48 700.636 807.462 701.879 807.605 703.967H807.868C808.491 701.785 809.783 700.636 811.65 700.636C813.876 700.636 815 702.114 815 704.53V712.059H811.722V705.421C811.722 704.295 811.195 703.521 809.998 703.521C808.61 703.521 807.749 704.483 807.749 705.867V712.059H804.494V705.421C804.494 704.295 803.943 703.521 802.771 703.521C801.383 703.521 800.497 704.483 800.497 705.867Z" fill="#515151"/>
<path d="M788.364 709.854C789.848 709.854 790.781 708.986 790.781 707.79V707.344H788.436C787.382 707.344 786.712 707.813 786.712 708.587C786.712 709.291 787.119 709.854 788.364 709.854ZM790.948 712.059V709.408H790.661C790.087 711.168 788.89 712.294 786.952 712.294C785.037 712.294 783.625 711.332 783.625 709.15C783.625 707.157 784.822 705.773 787.813 705.773H790.781V704.999C790.781 703.849 790.278 703.192 789.034 703.192C787.957 703.192 787.335 703.709 787.119 704.788L784.056 704.107C784.439 702.09 786.018 700.659 789.154 700.659C792.6 700.659 794.012 702.207 794.012 704.999V712.059H790.948Z" fill="#515151"/>
<path d="M777.804 712.059V709.103H777.565C776.918 711.261 775.53 712.387 773.735 712.387C771.581 712.387 770.48 710.886 770.48 708.47V700.94H773.735V707.579C773.735 708.728 774.262 709.502 775.459 709.502C776.847 709.502 777.708 708.54 777.708 707.133V700.94H780.987V712.059H777.804Z" fill="#515151"/>
<path d="M760.114 705.867V712.059H756.859V700.941H760.042V703.92H760.258C760.928 701.762 762.316 700.636 764.087 700.636C766.265 700.636 767.366 702.114 767.366 704.53V712.059H764.111V705.421C764.111 704.295 763.585 703.521 762.388 703.521C761 703.521 760.114 704.483 760.114 705.867Z" fill="#515151"/>
<path d="M739.678 716C738.889 716 738.41 715.929 737.812 715.835L738.29 713.138C738.769 713.232 739.271 713.302 739.75 713.302C740.899 713.302 741.497 713.091 742.024 711.918L737.764 700.94H741.33L742.455 705.022C742.79 706.265 743.196 707.696 743.555 709.056H743.962C744.321 707.672 744.704 706.289 744.991 705.092L746.044 700.94H749.539L745.063 712.106C743.962 714.827 742.526 716 739.678 716Z" fill="#515151"/>
<path d="M730.791 709.573C732.37 709.573 733.064 708.564 733.064 706.523C733.064 704.483 732.37 703.521 730.815 703.521C729.379 703.521 728.493 704.53 728.493 706.125V706.992C728.493 708.541 729.403 709.573 730.791 709.573ZM728.493 697V703.755H728.709C729.307 701.809 730.551 700.636 732.37 700.636C734.859 700.636 736.271 702.7 736.271 706.523C736.271 710.347 734.811 712.387 732.37 712.387C730.48 712.387 729.259 711.097 728.685 709.15H728.493V712.059H725.238V697H728.493Z" fill="#515151"/>
<path d="M711.098 709.573C712.462 709.573 713.395 708.588 713.395 707.039V706.171C713.395 704.553 712.51 703.521 711.074 703.521C709.518 703.521 708.8 704.506 708.8 706.594C708.8 708.588 709.494 709.573 711.098 709.573ZM713.395 712.059V709.15H713.204C712.63 711.097 711.385 712.387 709.494 712.387C707.053 712.387 705.617 710.347 705.617 706.594C705.617 702.723 707.053 700.636 709.542 700.636C711.361 700.636 712.582 701.809 713.18 703.755H713.395V697H716.65V712.059H713.395Z" fill="#515151"/>
<path d="M698.181 703.028C696.697 703.028 695.859 703.779 695.692 705.609H700.431C700.383 703.873 699.641 703.028 698.181 703.028ZM698.229 712.364C694.806 712.364 692.461 710.511 692.461 706.734C692.461 702.888 694.591 700.636 698.277 700.636C701.771 700.636 703.422 702.653 703.422 705.726C703.422 706.195 703.398 706.641 703.35 707.227H695.668C695.859 709.01 696.697 709.807 698.253 709.807C699.784 709.807 700.263 709.104 700.55 708.259L703.279 708.986C702.776 710.91 701.46 712.364 698.229 712.364Z" fill="#515151"/>
<path d="M686.919 712.059H683.664V700.941H686.751V704.553H687.015C687.733 701.457 688.69 700.823 690.174 700.823H690.509V704.482H689.839C687.565 704.482 686.919 705.139 686.919 707.11V712.059Z" fill="#515151"/>
<path d="M675.675 703.028C674.191 703.028 673.354 703.779 673.186 705.609H677.925C677.877 703.873 677.135 703.028 675.675 703.028ZM675.723 712.364C672.301 712.364 669.955 710.511 669.955 706.734C669.955 702.888 672.085 700.636 675.771 700.636C679.265 700.636 680.916 702.653 680.916 705.726C680.916 706.195 680.892 706.641 680.845 707.227H673.162C673.354 709.01 674.191 709.807 675.747 709.807C677.279 709.807 677.757 709.104 678.044 708.259L680.773 708.986C680.27 710.91 678.954 712.364 675.723 712.364Z" fill="#515151"/>
<path d="M661.526 700.94L662.46 705.327C662.771 706.711 663.034 708.118 663.273 709.619H663.68C663.944 708.188 664.255 706.828 664.566 705.303L665.427 700.94H668.634L665.499 712.059H661.239L660.282 707.274C660.042 706.007 659.827 704.693 659.66 703.356H659.253C659.085 704.67 658.846 706.03 658.63 707.274L657.745 712.059H653.604L650.445 700.94H653.796L654.801 705.303C655.16 706.828 655.471 708.165 655.711 709.619H656.141C656.381 708.142 656.644 706.711 656.931 705.327L657.865 700.94H661.526Z" fill="#515151"/>
<path d="M643.334 712.387C639.649 712.387 637.471 710.159 637.471 706.5C637.471 702.794 639.72 700.636 643.334 700.636C646.876 700.636 649.15 702.794 649.15 706.5C649.15 710.159 646.948 712.387 643.334 712.387ZM643.31 703.31C641.515 703.31 640.726 704.459 640.726 706.476C640.726 708.494 641.468 709.667 643.31 709.667C645.129 709.667 645.895 708.494 645.895 706.476C645.895 704.459 645.105 703.31 643.31 703.31Z" fill="#515151"/>
<path d="M629.672 700.847H627.446V705.187H629.72C631.491 705.187 632.209 704.483 632.209 703.005C632.209 701.527 631.539 700.847 629.672 700.847ZM630.103 707.931H627.446V712.059H624V697.985H629.983C633.789 697.985 635.608 699.698 635.608 703.005C635.608 705.749 633.645 707.931 630.103 707.931Z" fill="#515151"/>
</g>
<defs>
<linearGradient id="paint0_linear_10094_191286" x1="0" y1="384.13" x2="1440" y2="384.13" gradientUnits="userSpaceOnUse">
<stop stop-color="#E9E9E9"/>
<stop offset="1" stop-color="#F5F5F5"/>
</linearGradient>
<clipPath id="clip0_10094_191286">
<rect width="1440" height="768" fill="white"/>
</clipPath>
</defs>
</svg>
